<?xml version="1.0" encoding="UTF-8"?>
<!-- Created with Inkscape (http://www.inkscape.org/) -->
<svg width="95.904mm" height="96.171mm" version="1.1" viewBox="0 0 95.904 96.171" xml:space="preserve" xmlns="http://www.w3.org/2000/svg" xmlns:xlink="http://www.w3.org/1999/xlink"><defs><linearGradient id="linearGradient8711"><stop stop-color="#999" offset=".38623"/><stop stop-color="#00519e" offset=".9369"/></linearGradient><linearGradient id="linearGradient4838"><stop stop-color="#fff" offset="0"/><stop stop-color="#fff" stop-opacity="0" offset="1"/></linearGradient><radialGradient id="radialGradient4840" cx="130.07" cy="111.01" r="6.35" gradientTransform="translate(1.6545 -.080612)" gradientUnits="userSpaceOnUse" xlink:href="#linearGradient4838"/><radialGradient id="radialGradient4840-4" cx="130.07" cy="111.01" r="6.35" gradientTransform="translate(2.8967 -.092444)" gradientUnits="userSpaceOnUse" xlink:href="#linearGradient4838"/><linearGradient id="linearGradient9546" x1="156.04" x2="155.97" y1="84.53" y2="94.837" gradientTransform="matrix(.82991 0 0 1.3977 -51.801 -280.99)" gradientUnits="userSpaceOnUse" xlink:href="#linearGradient8711"/><linearGradient id="linearGradient9582" x1="156.04" x2="155.97" y1="84.53" y2="94.837" gradientTransform="matrix(.82991 0 0 1.3977 -290.8 -140.71)" gradientUnits="userSpaceOnUse" xlink:href="#linearGradient8711"/><linearGradient id="linearGradient9627" x1="156.04" x2="155.97" y1="84.53" y2="94.837" gradientTransform="matrix(.82991 0 0 1.3977 -40.944 -3.7351)" gradientUnits="userSpaceOnUse" xlink:href="#linearGradient8711"/><linearGradient id="linearGradient9660" x1="50.046" x2="145.39" y1="176.54" y2="80.562" gradientUnits="userSpaceOnUse"><stop stop-color="#00519e" offset="0"/><stop stop-color="#00519e" stop-opacity=".42473" offset="1"/></linearGradient></defs><g transform="translate(-50.233 -80.371)"><path d="m68.295 110.57c-5.467 13.48-1.3305 35.81 12.882 45.865-2.6946-0.95224-3.0843-1.664-4.415-2.3505-6.7937-4.97-11.244-12.576-13.351-20.695-1.9246-7.4171-0.97564-17.37 0.86438-22.173 2.6817 0.24027 2.8926-0.71251 4.0199-0.64548zm28.146 65.909c-21.499-0.80694-41.4-17.467-45.312-38.744-3.6114-17.588 3.9489-36.51 18.05-47.433 11.499-9.2994 27.506-12.248 41.65-8.0779 16.349 4.4349 30.479 17.739 33.967 34.59 4.6199 18.979-2.8787 40.791-19.551 51.507-8.4028 5.6877-18.646 8.7129-28.803 8.1569zm6.107-6.4618c19.514-0.94652 37.603-17.563 38.251-37.453 0.17278-1.9331 0.23923-7.6264-0.16555-7.1133-1.2191 9.3098-3.1189 19.018-9.3285 26.421-10.172 13.119-28.688 18.831-44.474 13.655-9.5534-2.9436-18.153-9.4982-22.761-18.462 8.3843 9.858 20.788 16.726 33.95 16.37 14.544 0.0397 29.379-8.5993 34.531-22.568 3.5081-9.0331 4.6713-18.975 3.923-28.596-1.0261-6.9336-5.0728-13.233-10.91-17.097-13.407-9.8414-30.609-13.837-45.834-4.9506-9.8059 5.7234-12.507 9.6557-16.681 16.368-4.8491 7.7976-5.9045 13.612-6.2882 22.576-0.12529 19.198 15.034 37.1 34.008 40.125 3.8711 0.76059 7.8437 1.0183 11.779 0.72561zm20.942-64.174c-5.1656-11.244-17.023-16.977-29.279-15.943-2.1365 0.18025-7.519 0.38423-2.927-0.38729 12.425-2.5955 26.475 1.5696 34.463 11.686-1.1577 1.3253-1.4715 3.1153-2.2569 4.6445z" fill="url(#linearGradient9660)" stroke-width=".090533"/><rect transform="rotate(-5.0424)" x="86.666" y="114.09" width="3.5547" height="14.874" fill="url(#linearGradient9627)"/><rect transform="rotate(231.73)" x="-163.19" y="-22.889" width="3.5547" height="14.874" fill="url(#linearGradient9582)"/><rect transform="rotate(113.1)" x="75.809" y="-163.17" width="3.5547" height="14.874" fill="url(#linearGradient9546)"/><g transform="matrix(.76031 0 0 .76031 -17.981 56.172)"><circle cx="130.44" cy="112.27" r="6.35" fill="#999"/><circle cx="130.44" cy="112.27" r="6.35" fill="url(#radialGradient4840-4)"/></g><g transform="matrix(.76031 0 0 .76031 22.804 50.934)"><circle cx="130.44" cy="112.27" r="6.35" fill="#999"/><circle cx="130.44" cy="112.27" r="6.35" fill="url(#radialGradient4840-4)"/></g><g transform="matrix(1.3977 0 0 1.3977 -80.785 -29.941)"><circle cx="129.2" cy="112.28" r="6.35" fill="#00519e"/><circle cx="129.2" cy="112.28" r="6.35" fill="url(#radialGradient4840)"/></g><g transform="matrix(.76031 0 0 .76031 -1.371 18.673)"><circle cx="130.44" cy="112.27" r="6.35" fill="#999"/><circle cx="130.44" cy="112.27" r="6.35" fill="url(#radialGradient4840-4)"/></g></g></svg>
